<svg width="598" height="266" viewBox="0 0 598 266" fill="none" xmlns="http://www.w3.org/2000/svg">
<path fill-rule="evenodd" clip-rule="evenodd" d="M577.545 203.999C577.437 202.583 577.498 202.819 576.126 202.413C574.254 201.861 571.018 201.026 571.749 200.964C572.721 200.879 576.475 200.799 576.744 199.595C577.012 198.392 576.97 185.219 576.805 183.477C576.64 181.735 575.352 176.756 575.687 170.7C576.017 164.644 577.512 157.758 575.937 154.025C574.362 150.291 569.887 139.176 566.981 132.285C564.076 125.394 547.212 92.5853 547.17 91.2968C547.004 86.1757 549.655 77.8969 541.161 77.8969C537.162 77.8969 538.61 78.4964 536.724 76.2686C534.394 73.5169 527.721 67.9804 511.318 67.1119C493.52 66.1727 461.739 65.2853 448.727 67.1874C438.715 68.6506 437.211 79.9737 436.876 88.7669C436.65 94.6857 435.725 179.489 441.686 182.769C442.488 183.208 444.007 183.727 445.36 184.147C448.298 185.053 448.063 184.157 448.086 186.819L448.129 191.133C448.152 193.865 448.718 193.639 446.157 193.625L431.193 193.521C430.151 193.511 430.283 193.705 430.297 192.69C430.311 191.69 430.104 191.883 430.925 191.949C431.665 192.006 432.816 191.996 432.816 191.378C432.816 190.576 432.382 50.5592 432.278 16.7928C432.24 4.09625 428.666 1.03302 413.023 0.735663C397.229 0.433588 64.8064 0.169273 8.8321 0.131513C-1.51483 0.122073 0.876193 -1.79893 0.824317 9.36368L0.0508914 189.575C0.0414594 192.124 -0.46787 191.859 1.95144 191.888L47.8807 192.421C50.5169 192.449 50.1585 191.977 50.1208 194.555L49.852 212.231C49.819 214.52 49.3992 214.227 51.611 214.251L71.0929 214.496C73.2387 214.525 72.9085 214.161 72.9038 216.294L72.7671 259.935C72.7624 261.53 72.4417 261.417 73.715 260.832C74.5733 260.435 75.8325 259.855 76.7427 259.449C78.1433 258.826 77.8604 259.345 77.8415 257.858C77.7755 251.666 77.6623 221.892 77.6387 215.544C77.634 214.019 77.2992 214.312 78.8837 214.345L81.4964 214.397C83.0857 214.43 82.7933 214.204 82.798 215.832L82.9772 254.639C82.9819 255.678 82.8405 255.578 83.7412 255.069L86.6369 253.431C87.2452 253.086 87.0849 253.152 87.0849 252.421L87.0047 219.981C87 217.72 86.9858 219.589 87.8111 220.075C90.6832 221.774 91.1595 218.824 91.4991 216.984C91.6453 216.195 92.1829 215.822 92.1404 217.106C92.098 218.442 91.7726 218.381 92.6686 218.447C93.6543 218.522 95.5926 218.574 95.8708 217.852C96.2434 216.88 95.6209 214.076 96.5358 214.034C97.1771 214.005 99.3795 214.048 100.625 214.076C101.087 214.086 101.572 214.104 102.068 214.128C99.9077 218.791 98.691 223.988 98.691 229.468C98.691 249.641 115.027 265.991 135.183 265.991C155.34 265.991 171.676 249.636 171.676 229.468C171.676 228.245 171.615 227.037 171.497 225.848C173.166 226.154 174.746 226.438 176.213 226.688C176.953 226.815 176.948 226.759 177.717 226.683C178.609 226.593 179.839 226.546 179.839 226.928C179.839 227.386 181.301 227.193 181.995 227.216C182.471 227.231 182.334 227.315 182.372 227.75C182.414 228.25 182.339 228.132 182.877 228.123L292.967 225.947C295.372 229.359 299.338 231.601 303.804 231.601H362.58L362.462 236.925C362.429 238.459 362.797 238.478 361.411 238.492L360.123 238.506C358.68 238.521 358.685 238.185 358.727 239.498L358.883 244.269C358.911 245.124 358.869 244.916 359.793 244.926L370.281 245.067C371.503 245.081 371.338 244.859 371.338 246.054V249.041C371.338 250.396 371.083 250.226 372.394 250.217L377.327 250.188C378.294 250.184 378.138 250.339 378.143 249.372L378.171 245.969C378.181 244.864 377.968 244.992 379.025 245.001L412.744 245.199C413.32 245.199 413.164 245.223 413.173 245.865L413.197 247.252C413.206 247.88 413.136 247.734 413.683 248.045C414.555 248.541 414.362 248.376 414.409 249.409C414.447 250.16 414.272 250.141 414.961 250.132L419.832 250.066C420.7 250.056 420.559 250.198 420.568 249.325L420.615 245.157C420.625 244.354 420.455 244.411 421.2 244.425L437.513 244.732C438.258 244.746 438.126 244.855 438.126 244.104L438.116 240.555C438.116 240.437 438.135 240.456 438.013 240.456L437.216 240.437C437.103 240.437 437.117 240.456 437.121 240.347L437.14 237.393C437.14 237.123 437.159 237.185 436.876 237.166L436.051 237.119C435.546 237.09 435.659 237.171 435.872 236.864C436.225 236.345 436.956 234.825 437.051 231.134C437.15 227.245 437.131 222.95 437.117 221.35C437.117 220.575 436.947 220.698 437.65 220.712L440.036 220.769C440.696 220.783 440.574 220.693 440.569 221.368L440.456 236.156C440.451 237.039 440.347 236.817 441.144 237.364C442.163 238.063 443.941 239.073 443.851 237.562C443.743 235.689 443.596 223.832 443.568 221.142C443.554 219.872 444.639 220.41 444.639 220.887C444.639 221.76 444.516 229.477 445.134 232.668C445.756 235.863 447.332 237.52 447.082 239.347C446.832 241.173 447.582 242.915 448.742 242.872C448.93 242.868 451.114 242.424 454.623 241.692C459.645 255.852 473.142 266 489.016 266C509.173 266 525.509 249.645 525.509 229.477C525.509 228.562 525.462 227.66 525.396 226.763H525.433C525.877 226.82 525.872 226.716 525.891 227.127L525.985 229.109C526.004 229.515 525.919 229.477 526.306 229.477L553.725 229.421C555.29 229.421 554.913 229.628 555.427 227.915C555.875 226.419 556.403 224.252 555.927 223.568C555.904 223.535 552.371 220.708 554.89 220.5C555.385 220.457 557.931 220.958 559.582 221.298C562.699 221.935 564.345 225.786 566.062 225.602C566.93 225.508 571.514 225.437 573.763 225.409C575.395 225.39 574.914 225.715 575.112 224.333C575.23 223.511 575.489 222.478 576.05 222.284C577.003 221.954 577.71 221.411 577.729 220.354C577.748 219.462 577.824 207.799 577.531 204.018L577.545 203.999Z" fill="#F0F0F0"/>
<path fill-rule="evenodd" clip-rule="evenodd" d="M489.031 235.62C485.324 235.62 482.32 232.614 482.32 228.904C482.32 225.194 485.324 222.188 489.031 222.188C492.738 222.188 495.742 225.194 495.742 228.904C495.742 232.614 492.738 235.62 489.031 235.62Z" fill="#FEFEFE" fill-opacity="0.6"/>
<path fill-rule="evenodd" clip-rule="evenodd" d="M489.023 201.852C473.781 201.852 461.43 214.218 461.43 229.473C461.43 244.727 473.786 257.089 489.023 257.089C504.26 257.089 516.616 244.723 516.616 229.473C516.616 214.222 504.26 201.852 489.023 201.852ZM488.957 250.83C476.945 250.83 467.207 241.084 467.207 229.062C467.207 217.04 476.945 207.294 488.957 207.294C500.969 207.294 510.707 217.04 510.707 229.062C510.707 241.084 500.969 250.83 488.957 250.83Z" fill="#FEFEFE" fill-opacity="0.6"/>
<path fill-rule="evenodd" clip-rule="evenodd" d="M545.662 89.7524C545.756 87.0196 546.959 83.2531 544.935 81.0489C542.596 78.5048 538.309 79.2553 538.286 79.7131C538.206 81.1952 545.624 90.8757 545.662 89.7524Z" fill="#FEFEFE" fill-opacity="0.6"/>
<path fill-rule="evenodd" clip-rule="evenodd" d="M560.331 133.393C559.128 130.533 551.13 110.077 551.13 110.077C549.097 105.296 547.947 94.5578 549.097 96.6345C549.512 97.3803 568.787 136.376 568.414 137.249C567.712 138.892 561.326 135.758 560.331 133.393Z" fill="#FEFEFE" fill-opacity="0.6"/>
<path fill-rule="evenodd" clip-rule="evenodd" d="M135.197 235.62C131.49 235.62 128.486 232.614 128.486 228.904C128.486 225.194 131.49 222.188 135.197 222.188C138.904 222.188 141.908 225.194 141.908 228.904C141.908 232.614 138.904 235.62 135.197 235.62Z" fill="#FEFEFE" fill-opacity="0.6"/>
<path fill-rule="evenodd" clip-rule="evenodd" d="M553.748 148.769C553.046 151.092 550.763 153.914 549.975 153.829C549.188 153.749 534.182 148.807 534.182 148.807C534.182 148.807 533.229 141.921 535.134 140.594C537.039 139.268 547.985 129.602 548.108 128.686C548.542 125.5 554.352 146.759 553.744 148.765L553.748 148.769Z" fill="#FEFEFE" fill-opacity="0.6"/>
<path fill-rule="evenodd" clip-rule="evenodd" d="M135.189 201.852C119.947 201.852 107.596 214.218 107.596 229.473C107.596 244.727 119.952 257.089 135.189 257.089C150.427 257.089 162.782 244.723 162.782 229.473C162.782 214.222 150.427 201.852 135.189 201.852ZM135.118 250.83C123.107 250.83 113.368 241.084 113.368 229.062C113.368 217.04 123.107 207.294 135.118 207.294C147.13 207.294 156.869 217.04 156.869 229.062C156.869 241.084 147.13 250.83 135.118 250.83Z" fill="#FEFEFE" fill-opacity="0.6"/>
<path fill-rule="evenodd" clip-rule="evenodd" d="M459.611 87.0196C455.603 93.7078 456.353 123.49 466.822 127.465C487.672 135.385 508.04 142.276 529.531 147.944C532.247 148.662 531.814 149.129 531.573 146.698C531.337 144.338 531.54 140.69 532.021 139.864C532.728 138.66 545.66 128.498 545.702 126.341C545.745 124.184 545.66 121.197 544.83 122.4C544 123.604 541.679 124.807 541.679 123.5C541.679 122.192 542.759 110.308 541.184 105.994C539.609 101.68 532.063 86.996 526.928 86.1653C516.925 84.5511 461.097 84.5417 459.611 87.0149V87.0196Z" fill="#FEFEFE" fill-opacity="0.6"/>
</svg>
